<?xml version="1.0" encoding="utf-8"?>
<!-- Generator: Adobe Illustrator 16.0.3, SVG Export Plug-In . SVG Version: 6.00 Build 0)  -->
<!DOCTYPE svg PUBLIC "-//W3C//DTD SVG 1.0//EN" "http://www.w3.org/TR/2001/REC-SVG-20010904/DTD/svg10.dtd">
<svg version="1.0" id="Layer_1" xmlns="http://www.w3.org/2000/svg" xmlns:xlink="http://www.w3.org/1999/xlink" x="0px" y="0px"
	 width="800px" height="600px" viewBox="0 0 800 600" enable-background="new 0 0 800 600" xml:space="preserve">
<g>
	<g id="g3415">
		
			<linearGradient id="rect3249_1_" gradientUnits="userSpaceOnUse" x1="551.4443" y1="308.4688" x2="505.324" y2="308.4688" gradientTransform="matrix(1 0 0 1 -129.7764 -249.6963)">
			<stop  offset="0" style="stop-color:#FFEF00"/>
			<stop  offset="0.5689" style="stop-color:#E7D31B"/>
			<stop  offset="0.9515" style="stop-color:#E5BF21"/>
		</linearGradient>
		<rect id="rect3249" x="369.779" y="49.241" fill="url(#rect3249_1_)" width="57.902" height="19.062"/>
		
			<linearGradient id="SVGID_1_" gradientUnits="userSpaceOnUse" x1="459.6289" y1="450.5146" x2="353.5415" y2="489.1273" gradientTransform="matrix(1 0 0 -1 4 595)">
			<stop  offset="0" style="stop-color:#FFEF00"/>
			<stop  offset="0.5689" style="stop-color:#E7D31B"/>
			<stop  offset="0.9515" style="stop-color:#E5BF21"/>
		</linearGradient>
		<path fill="url(#SVGID_1_)" d="M463.496,88.532h-0.047v-0.801c-5.428-17.397-20.143-19.333-35.96-19.42h-11.141h-1.21H381.66
			h-0.22h-12.357c-15.103,0.255-28.154,3.417-32.945,18.282v3.413h-0.121v63.724h0.121v2.008
			c4.791,14.864,17.842,18.026,32.945,18.282h12.357h0.22h34.688c0.102-0.159,0.189-0.33,0.288-0.49h10.853
			c15.817-0.083,30.532-1.91,35.96-18.33v-0.487h0.047V88.532L463.496,88.532z"/>
		
			<linearGradient id="rect3253_1_" gradientUnits="userSpaceOnUse" x1="565.1875" y1="444.4121" x2="491.05" y2="417.4283" gradientTransform="matrix(1 0 0 1 -128.3477 -251.123)">
			<stop  offset="0" style="stop-color:#FFEF00"/>
			<stop  offset="0.5689" style="stop-color:#E7D31B"/>
			<stop  offset="0.9515" style="stop-color:#E5BF21"/>
		</linearGradient>
		<rect id="rect3253" x="360.769" y="172.005" fill="url(#rect3253_1_)" width="78.003" height="15.583"/>
	</g>
	<g>
		<circle fill="#3B3939" cx="377.994" cy="110.664" r="8.469"/>
		<circle fill="#3B3939" cx="422.005" cy="110.664" r="8.469"/>
		<path fill="#3B3939" d="M417.84,137.303c-2.899,1.355-5.777,2.587-8.774,3.477c-2.999,0.89-6.112,1.441-9.537,1.442
			c-2.519,0-5.208-0.299-8.154-1.006c-2.944-0.708-6.143-1.824-9.657-3.467c-1.245-0.583-2.727-0.046-3.31,1.2
			c-0.583,1.246-0.045,2.727,1.2,3.31c3.78,1.767,7.297,3.003,10.604,3.798c3.306,0.794,6.402,1.144,9.316,1.144
			c3.966,0.001,7.59-0.648,10.954-1.647c3.363-1,6.473-2.342,9.465-3.738c1.246-0.582,1.784-2.063,1.203-3.309
			C420.567,137.261,419.086,136.722,417.84,137.303z"/>
	</g>
</g>
<linearGradient id="SVGID_2_" gradientUnits="userSpaceOnUse" x1="396.4995" y1="40.7173" x2="396.4995" y2="246.1938" gradientTransform="matrix(1 0 0 -1 4 595)">
	<stop  offset="0" style="stop-color:#446DB5"/>
	<stop  offset="0.6061" style="stop-color:#446DB5"/>
	<stop  offset="0.7636" style="stop-color:#628DAD"/>
	<stop  offset="0.903" style="stop-color:#6795B6"/>
</linearGradient>
<path fill="url(#SVGID_2_)" d="M466.715,348.807h-62.112H300.792v66.753v15.492v74.104v1.553v47.574h95.605v-47.574v-1.553v-71.391
	c1.227,0.377,2.532,0.586,3.893,0.586c1.518,0,2.966-0.267,4.312-0.729v71.534v1.553v47.574h95.605v-47.574v-1.553v-74.104v-21.744
	v-60.501H466.715L466.715,348.807z"/>
<g>
	<path fill="#426DB5" d="M546.394,327.725l-9.538-55.614l-29.272-57.839c0,0-13.729-21.197-36.509-16.802l27.888,136.552
		L546.394,327.725z"/>
	<path fill="#ED1F24" d="M502.057,348.807L471.058,197.39c0-6.164-5.539-11.237-12.668-11.917l-0.016-0.083l-0.082,0.071
		c-0.504-0.045-1.014-0.071-1.533-0.071H342.983c-0.247,0-0.488,0.021-0.732,0.031l-0.035-0.03l-0.006,0.032
		c-7.534,0.339-13.524,5.56-13.524,11.968l-30.029,151.417L502.057,348.807L502.057,348.807z"/>
	<g id="cuffs_1_">
		<g>
			<path fill="#32558E" d="M546.368,327.428c-0.601-4.091-11.732-6.051-24.863-4.376c-13.131,1.676-23.287,6.349-22.688,10.438
				c0.601,4.092,11.731,6.05,24.862,4.376C536.811,336.19,546.969,331.517,546.368,327.428z"/>
		</g>
	</g>
	<g id="arm_2_">
		<g>
			
				<linearGradient id="SVGID_3_" gradientUnits="userSpaceOnUse" x1="540.9912" y1="246.7388" x2="500.1326" y2="259.3007" gradientTransform="matrix(1 0 0 -1 4 595)">
				<stop  offset="0" style="stop-color:#FFEF00"/>
				<stop  offset="1" style="stop-color:#E7D31B"/>
			</linearGradient>
			<path fill="url(#SVGID_3_)" d="M540.196,326.81c0,0-18.124-6.167-34.812,4.82l2.422,25.179l36.193-5.318L540.196,326.81z"/>
		</g>
	</g>
	<g>
		
			<linearGradient id="SVGID_4_" gradientUnits="userSpaceOnUse" x1="557.917" y1="211.481" x2="496.1101" y2="230.4835" gradientTransform="matrix(1 0 0 -1 4 595)">
			<stop  offset="0" style="stop-color:#FFEF00"/>
			<stop  offset="1" style="stop-color:#E7D31B"/>
		</linearGradient>
		<path fill="url(#SVGID_4_)" d="M526.479,342.548c-17.69,2.412-30.077,18.707-27.664,36.396
			c1.334,9.802,6.934,17.967,14.668,22.896c0.426,0.049,4.062,0.868,5.953-0.259c5.945-3.544-0.979-12.219-3.712-19.549
			c-1.128-1.895-1.901-4.043-2.217-6.363c-1.264-9.259,5.219-17.79,14.48-19.052c0.133-0.02,0.267-0.03,0.4-0.043
			c0.134-0.021,0.267-0.047,0.397-0.065c9.261-1.262,17.788,5.222,19.051,14.479c0.318,2.322,0.146,4.6-0.433,6.728
			c-0.67,7.791-5.021,18.005,1.651,19.829c2.126,0.58,5.411-1.182,5.809-1.347c6.134-6.816,9.343-16.185,8.007-25.984
			C560.462,352.525,544.169,340.138,526.479,342.548z"/>
	</g>
	<path fill="#426DB5" d="M301.039,334.5l27.888-136.552c-22.779-4.396-36.509,16.802-36.509,16.802l-29.272,57.839l-9.539,55.614
		L301.039,334.5z"/>
	<g id="cuffs_2_">
		<g>
			<path fill="#32558E" d="M278.495,323.53c-13.131-1.675-24.264,0.285-24.863,4.376c-0.601,4.089,9.558,8.763,22.688,10.438
				c13.131,1.674,24.263-0.284,24.863-4.376C301.782,329.878,291.626,325.206,278.495,323.53z"/>
		</g>
	</g>
	<g id="arm_3_">
		<g>
			
				<linearGradient id="SVGID_5_" gradientUnits="userSpaceOnUse" x1="291.249" y1="247.6499" x2="253.2299" y2="259.3388" gradientTransform="matrix(1 0 0 -1 4 595)">
				<stop  offset="0" style="stop-color:#FFEF00"/>
				<stop  offset="1" style="stop-color:#E7D31B"/>
			</linearGradient>
			<path fill="url(#SVGID_5_)" d="M259.804,327.288l-3.803,24.68l36.193,5.319l2.422-25.179
				C277.928,321.121,259.804,327.288,259.804,327.288z"/>
		</g>
	</g>
	<g>
		
			<linearGradient id="SVGID_6_" gradientUnits="userSpaceOnUse" x1="296.7002" y1="212.5225" x2="234.8961" y2="231.524" gradientTransform="matrix(1 0 0 -1 4 595)">
			<stop  offset="0" style="stop-color:#FFEF00"/>
			<stop  offset="1" style="stop-color:#E7D31B"/>
		</linearGradient>
		<path fill="url(#SVGID_6_)" d="M273.521,343.026c17.691,2.411,30.078,18.707,27.665,36.396
			c-1.334,9.802-6.934,17.967-14.668,22.896c-0.426,0.049-4.062,0.867-5.954-0.26c-5.945-3.544,0.98-12.219,3.712-19.549
			c1.128-1.894,1.902-4.043,2.217-6.363c1.264-9.259-5.219-17.789-14.48-19.052c-0.133-0.019-0.267-0.029-0.401-0.043
			c-0.133-0.021-0.266-0.047-0.397-0.064c-9.261-1.263-17.788,5.221-19.051,14.479c-0.318,2.323-0.146,4.601,0.433,6.729
			c0.67,7.791,5.021,18.005-1.652,19.829c-2.126,0.579-5.411-1.183-5.808-1.348c-6.134-6.815-9.343-16.184-8.007-25.983
			C239.538,353.004,255.831,340.616,273.521,343.026z"/>
	</g>
</g>
<g>
	<path fill="#32558E" d="M302.362,286.472l-29.803-9.021c-0.793-0.24-1.63,0.208-1.87,1.001c-0.24,0.793,0.208,1.63,1.001,1.87
		l29.803,9.021c0.793,0.24,1.63-0.208,1.87-1.001C303.603,287.549,303.155,286.711,302.362,286.472"/>
</g>
<g>
	<path fill="#32558E" d="M526.758,274.728l-27.452,14.695c-0.729,0.391-1.006,1.3-0.613,2.029c0.391,0.73,1.299,1.006,2.028,0.615
		l27.452-14.695c0.731-0.391,1.007-1.3,0.615-2.031S527.487,274.336,526.758,274.728"/>
</g>
<rect x="300.792" y="524.172" fill="#32558E" width="95.605" height="6.591"/>
<rect x="404.603" y="524.172" fill="#32558E" width="95.605" height="6.591"/>
<linearGradient id="SVGID_7_" gradientUnits="userSpaceOnUse" x1="344.5093" y1="165.9019" x2="344.5093" y2="133.3843" gradientTransform="matrix(1 0 0 -1 4 595)">
	<stop  offset="0" style="stop-color:#000000;stop-opacity:0.57"/>
	<stop  offset="1" style="stop-color:#000000;stop-opacity:0"/>
</linearGradient>
<rect x="300.62" y="429.098" fill="url(#SVGID_7_)" width="95.777" height="32.518"/>
<linearGradient id="SVGID_8_" gradientUnits="userSpaceOnUse" x1="448.3184" y1="165.9019" x2="448.3184" y2="133.3843" gradientTransform="matrix(1 0 0 -1 4 595)">
	<stop  offset="0" style="stop-color:#000000;stop-opacity:0.57"/>
	<stop  offset="1" style="stop-color:#000000;stop-opacity:0"/>
</linearGradient>
<rect x="404.431" y="429.098" fill="url(#SVGID_8_)" width="95.777" height="32.518"/>
<path fill="#32558E" d="M491.899,348.807H309.473h-8.853v26.271h8.853h80.415v61.269c0,5.89,4.835,10.662,10.797,10.662
	c5.965,0,10.801-4.772,10.801-10.662v-61.269h80.413h8.781v-26.271H491.899z"/>
<linearGradient id="SVGID_9_" gradientUnits="userSpaceOnUse" x1="387.4233" y1="187.4614" x2="387.4233" y2="154.9448" gradientTransform="matrix(-1 0 0 1 839.8281 336.7109)">
	<stop  offset="0" style="stop-color:#FFFFFF;stop-opacity:0.57"/>
	<stop  offset="0.0899" style="stop-color:#E0E1E2;stop-opacity:0.5187"/>
	<stop  offset="0.2821" style="stop-color:#A9ABAD;stop-opacity:0.4092"/>
	<stop  offset="0.4649" style="stop-color:#7F8083;stop-opacity:0.305"/>
	<stop  offset="0.6331" style="stop-color:#5D5E60;stop-opacity:0.2091"/>
	<stop  offset="0.7835" style="stop-color:#414042;stop-opacity:0.1234"/>
	<stop  offset="0.9109" style="stop-color:#19191A;stop-opacity:0.0508"/>
	<stop  offset="1" style="stop-color:#000000;stop-opacity:0"/>
</linearGradient>
<rect x="404.603" y="491.655" opacity="0.45" fill="url(#SVGID_9_)" enable-background="new    " width="95.605" height="32.517"/>
<linearGradient id="SVGID_10_" gradientUnits="userSpaceOnUse" x1="491.2324" y1="187.4614" x2="491.2324" y2="154.9448" gradientTransform="matrix(-1 0 0 1 839.8281 336.7109)">
	<stop  offset="0" style="stop-color:#FFFFFF;stop-opacity:0.57"/>
	<stop  offset="0.0899" style="stop-color:#E0E1E2;stop-opacity:0.5187"/>
	<stop  offset="0.2821" style="stop-color:#A9ABAD;stop-opacity:0.4092"/>
	<stop  offset="0.4649" style="stop-color:#7F8083;stop-opacity:0.305"/>
	<stop  offset="0.6331" style="stop-color:#5D5E60;stop-opacity:0.2091"/>
	<stop  offset="0.7835" style="stop-color:#414042;stop-opacity:0.1234"/>
	<stop  offset="0.9109" style="stop-color:#19191A;stop-opacity:0.0508"/>
	<stop  offset="1" style="stop-color:#000000;stop-opacity:0"/>
</linearGradient>
<rect x="300.792" y="491.655" opacity="0.45" fill="url(#SVGID_10_)" enable-background="new    " width="95.605" height="32.517"/>
<g>
	<path d="M341.171,626.695l0.768,2.95c0.168,0.647,0.324,1.247,0.432,1.847h0.036c0.132-0.587,0.324-1.211,0.516-1.835l0.947-2.962
		h0.888l0.899,2.902c0.216,0.695,0.384,1.308,0.516,1.895h0.036c0.096-0.587,0.252-1.199,0.444-1.883l0.828-2.914h1.043
		l-1.871,5.805h-0.959l-0.888-2.771c-0.204-0.647-0.372-1.224-0.516-1.907h-0.024c-0.144,0.696-0.324,1.296-0.528,1.919
		l-0.936,2.759h-0.959l-1.751-5.805H341.171z"/>
	<path d="M350.146,626.695l0.768,2.95c0.168,0.647,0.324,1.247,0.433,1.847h0.035c0.132-0.587,0.324-1.211,0.516-1.835l0.948-2.962
		h0.887l0.9,2.902c0.216,0.695,0.384,1.308,0.516,1.895h0.036c0.096-0.587,0.251-1.199,0.443-1.883l0.827-2.914h1.044l-1.871,5.805
		h-0.96l-0.887-2.771c-0.204-0.647-0.372-1.224-0.517-1.907h-0.023c-0.144,0.696-0.324,1.296-0.527,1.919l-0.936,2.759h-0.96
		l-1.751-5.805H350.146z"/>
	<path d="M359.122,626.695l0.768,2.95c0.168,0.647,0.324,1.247,0.432,1.847h0.036c0.132-0.587,0.324-1.211,0.516-1.835l0.948-2.962
		h0.887l0.9,2.902c0.216,0.695,0.384,1.308,0.516,1.895h0.035c0.097-0.587,0.252-1.199,0.444-1.883l0.827-2.914h1.044l-1.871,5.805
		h-0.96l-0.887-2.771c-0.204-0.647-0.372-1.224-0.516-1.907h-0.024c-0.144,0.696-0.324,1.296-0.527,1.919l-0.936,2.759h-0.96
		l-1.751-5.805H359.122z"/>
	<path d="M366.815,631.876c0-0.443,0.3-0.755,0.719-0.755c0.42,0,0.708,0.312,0.708,0.755c0,0.433-0.275,0.756-0.72,0.756
		C367.103,632.632,366.815,632.309,366.815,631.876z"/>
	<path d="M372.766,632.5l-0.084-0.731h-0.036c-0.324,0.456-0.947,0.863-1.775,0.863c-1.175,0-1.774-0.827-1.774-1.667
		c0-1.403,1.247-2.171,3.49-2.159v-0.119c0-0.48-0.132-1.344-1.319-1.344c-0.54,0-1.104,0.168-1.512,0.432l-0.239-0.695
		c0.479-0.312,1.175-0.516,1.906-0.516c1.775,0,2.207,1.211,2.207,2.374v2.171c0,0.504,0.024,0.996,0.096,1.392H372.766z
		 M372.609,629.538c-1.151-0.024-2.458,0.18-2.458,1.307c0,0.684,0.455,1.008,0.995,1.008c0.756,0,1.235-0.479,1.403-0.972
		c0.036-0.107,0.06-0.228,0.06-0.336V629.538z"/>
	<path d="M375.336,623.984h1.055v8.516h-1.055V623.984z"/>
	<path d="M378.167,623.984h1.055v8.516h-1.055V623.984z"/>
	<path d="M384.213,632.5l-0.084-0.731h-0.036c-0.324,0.456-0.947,0.863-1.775,0.863c-1.175,0-1.774-0.827-1.774-1.667
		c0-1.403,1.247-2.171,3.49-2.159v-0.119c0-0.48-0.132-1.344-1.319-1.344c-0.54,0-1.104,0.168-1.512,0.432l-0.239-0.695
		c0.479-0.312,1.175-0.516,1.906-0.516c1.775,0,2.207,1.211,2.207,2.374v2.171c0,0.504,0.024,0.996,0.096,1.392H384.213z
		 M384.057,629.538c-1.151-0.024-2.458,0.18-2.458,1.307c0,0.684,0.455,1.008,0.995,1.008c0.756,0,1.235-0.479,1.403-0.972
		c0.036-0.107,0.06-0.228,0.06-0.336V629.538z"/>
	<path d="M386.783,628.267c0-0.6-0.013-1.092-0.049-1.571h0.936l0.061,0.959h0.023c0.288-0.552,0.96-1.091,1.919-1.091
		c0.804,0,2.051,0.479,2.051,2.471v3.466h-1.055v-3.346c0-0.936-0.348-1.716-1.344-1.716c-0.695,0-1.235,0.492-1.415,1.08
		c-0.048,0.132-0.072,0.312-0.072,0.491v3.49h-1.055V628.267z"/>
	<path d="M393.443,628.267c0-0.6-0.013-1.092-0.049-1.571h0.924l0.048,0.936h0.036c0.324-0.552,0.863-1.067,1.823-1.067
		c0.791,0,1.391,0.479,1.643,1.163h0.024c0.18-0.324,0.407-0.575,0.647-0.756c0.348-0.264,0.731-0.407,1.283-0.407
		c0.768,0,1.907,0.504,1.907,2.519v3.418h-1.031v-3.286c0-1.115-0.408-1.787-1.26-1.787c-0.6,0-1.067,0.443-1.247,0.96
		c-0.048,0.144-0.084,0.335-0.084,0.527v3.586h-1.031v-3.479c0-0.923-0.408-1.595-1.212-1.595c-0.659,0-1.139,0.527-1.307,1.056
		c-0.061,0.155-0.084,0.336-0.084,0.516v3.502h-1.031V628.267z"/>
	<path d="M407.589,632.284c-0.276,0.144-0.888,0.336-1.668,0.336c-1.751,0-2.89-1.188-2.89-2.963c0-1.787,1.223-3.082,3.118-3.082
		c0.623,0,1.175,0.156,1.463,0.3l-0.24,0.815c-0.251-0.144-0.647-0.275-1.223-0.275c-1.331,0-2.051,0.983-2.051,2.194
		c0,1.344,0.863,2.171,2.015,2.171c0.6,0,0.995-0.156,1.295-0.288L407.589,632.284z"/>
	<path d="M412.041,632.5l-0.084-0.731h-0.036c-0.324,0.456-0.947,0.863-1.775,0.863c-1.175,0-1.774-0.827-1.774-1.667
		c0-1.403,1.247-2.171,3.49-2.159v-0.119c0-0.48-0.132-1.344-1.319-1.344c-0.54,0-1.104,0.168-1.512,0.432l-0.239-0.695
		c0.479-0.312,1.175-0.516,1.906-0.516c1.775,0,2.207,1.211,2.207,2.374v2.171c0,0.504,0.024,0.996,0.096,1.392H412.041z
		 M411.885,629.538c-1.151-0.024-2.458,0.18-2.458,1.307c0,0.684,0.455,1.008,0.995,1.008c0.756,0,1.235-0.479,1.403-0.972
		c0.036-0.107,0.06-0.228,0.06-0.336V629.538z"/>
	<path d="M414.922,626.695l1.14,3.262c0.191,0.528,0.348,1.008,0.468,1.487h0.036c0.132-0.479,0.3-0.959,0.491-1.487l1.128-3.262
		h1.103l-2.278,5.805h-1.008l-2.206-5.805H414.922z"/>
	<path d="M425.42,629.55c0,2.146-1.487,3.082-2.891,3.082c-1.571,0-2.782-1.151-2.782-2.986c0-1.942,1.271-3.082,2.878-3.082
		C424.292,626.563,425.42,627.774,425.42,629.55z M420.814,629.609c0,1.271,0.731,2.231,1.763,2.231
		c1.008,0,1.763-0.948,1.763-2.255c0-0.983-0.491-2.231-1.738-2.231C421.354,627.354,420.814,628.506,420.814,629.609z"/>
	<path d="M427.055,626.695l1.271,3.43c0.132,0.384,0.276,0.84,0.372,1.188h0.024c0.107-0.348,0.228-0.791,0.371-1.211l1.151-3.406
		h1.116l-1.584,4.138c-0.755,1.991-1.271,3.011-1.99,3.634c-0.516,0.456-1.031,0.636-1.296,0.684l-0.264-0.888
		c0.264-0.084,0.611-0.252,0.924-0.516c0.288-0.228,0.647-0.636,0.888-1.175c0.048-0.108,0.084-0.192,0.084-0.252
		c0-0.061-0.024-0.145-0.072-0.276l-2.146-5.349H427.055z"/>
	<path d="M431.604,631.876c0-0.443,0.3-0.755,0.72-0.755c0.419,0,0.707,0.312,0.707,0.755c0,0.433-0.275,0.756-0.72,0.756
		C431.891,632.632,431.604,632.309,431.604,631.876z"/>
	<path d="M438.477,632.284c-0.276,0.144-0.888,0.336-1.668,0.336c-1.751,0-2.89-1.188-2.89-2.963c0-1.787,1.223-3.082,3.118-3.082
		c0.623,0,1.175,0.156,1.463,0.3l-0.239,0.815c-0.252-0.144-0.648-0.275-1.224-0.275c-1.331,0-2.051,0.983-2.051,2.194
		c0,1.344,0.863,2.171,2.015,2.171c0.6,0,0.995-0.156,1.295-0.288L438.477,632.284z"/>
	<path d="M444.896,629.55c0,2.146-1.487,3.082-2.891,3.082c-1.571,0-2.782-1.151-2.782-2.986c0-1.942,1.271-3.082,2.878-3.082
		C443.768,626.563,444.896,627.774,444.896,629.55z M440.29,629.609c0,1.271,0.731,2.231,1.763,2.231
		c1.008,0,1.763-0.948,1.763-2.255c0-0.983-0.491-2.231-1.738-2.231C440.829,627.354,440.29,628.506,440.29,629.609z"/>
	<path d="M445.691,631.876c0-0.443,0.3-0.755,0.72-0.755c0.419,0,0.707,0.312,0.707,0.755c0,0.433-0.275,0.756-0.72,0.756
		C445.979,632.632,445.691,632.309,445.691,631.876z"/>
	<path d="M453.283,630.917c0,0.6,0.013,1.127,0.049,1.583h-0.936l-0.061-0.947h-0.023c-0.276,0.468-0.888,1.079-1.919,1.079
		c-0.912,0-2.003-0.504-2.003-2.543v-3.394h1.055v3.214c0,1.104,0.336,1.848,1.296,1.848c0.707,0,1.199-0.492,1.391-0.96
		c0.061-0.156,0.097-0.348,0.097-0.54v-3.562h1.055V630.917z"/>
	<path d="M456.082,629.357h0.024c0.144-0.203,0.348-0.455,0.516-0.659l1.703-2.003h1.271l-2.242,2.387l2.555,3.418h-1.283
		l-2.003-2.782l-0.54,0.6v2.183h-1.043v-8.516h1.043V629.357z"/>
</g>
</svg>
